<?xml version="1.0" encoding="UTF-8" standalone="no"?><!-- Generator: Gravit.io --><svg xmlns="http://www.w3.org/2000/svg" xmlns:xlink="http://www.w3.org/1999/xlink" style="isolation:isolate" viewBox="244 244 512 512" width="512pt" height="512pt"><path d=" M 641.08 756 L 358.92 756 C 328.485 756 299.237 743.895 277.695 722.354 C 256.154 700.813 244 671.564 244 641.08 L 244 358.92 C 244 328.485 256.154 299.236 277.695 277.695 C 299.237 256.154 328.485 244.049 358.92 244 L 641.08 244.049 C 671.564 244.049 700.813 256.154 722.354 277.695 C 743.896 299.236 756 328.485 756 358.92 L 756 641.08 C 756 671.564 743.896 700.813 722.354 722.354 C 700.813 743.895 671.564 756 641.08 756 Z " fill="rgb(48,64,89)"/><clipPath id="_clipPath_OYSefzEWgTO8VTuPyczD1pRE6LoxvxrZ"><path d=" M 641.08 756 L 358.92 756 C 328.485 756 299.237 743.895 277.695 722.354 C 256.154 700.813 244 671.564 244 641.08 L 244 358.92 C 244 328.485 256.154 299.236 277.695 277.695 C 299.237 256.154 328.485 244.049 358.92 244 L 641.08 244.049 C 671.564 244.049 700.813 256.154 722.354 277.695 C 743.896 299.236 756 328.485 756 358.92 L 756 641.08 C 756 671.564 743.896 700.813 722.354 722.354 C 700.813 743.895 671.564 756 641.08 756 Z " fill="rgb(48,64,89)"/></clipPath><g clip-path="url(#_clipPath_OYSefzEWgTO8VTuPyczD1pRE6LoxvxrZ)"><path d=" M 641.084 731.284 L 358.916 731.284 C 309.133 731.284 268.716 690.867 268.716 641.084 L 268.716 358.916 C 268.716 309.133 309.133 268.716 358.916 268.716 L 641.084 268.716 C 690.867 268.716 731.284 309.133 731.284 358.916 L 731.284 641.084 C 731.284 690.867 690.867 731.284 641.084 731.284 Z " fill="rgb(48,64,89)"/><clipPath id="_clipPath_MhKW6VDrlDo08MVpfMryAwal4wJoSFcH"><path d=" M 641.084 731.284 L 358.916 731.284 C 309.133 731.284 268.716 690.867 268.716 641.084 L 268.716 358.916 C 268.716 309.133 309.133 268.716 358.916 268.716 L 641.084 268.716 C 690.867 268.716 731.284 309.133 731.284 358.916 L 731.284 641.084 C 731.284 690.867 690.867 731.284 641.084 731.284 Z " fill="rgb(48,64,89)"/></clipPath><g clip-path="url(#_clipPath_MhKW6VDrlDo08MVpfMryAwal4wJoSFcH)"><path d=" M 499.984 345.838 L 422.894 345.838 L 422.894 268.748 L 499.984 268.748 L 499.984 345.838 Z " fill="rgb(71,145,206)"/><path d=" M 499.984 422.927 L 422.894 422.927 L 422.894 345.838 L 499.984 345.838 L 499.984 422.927 Z " fill="rgb(135,189,255)"/><path d=" M 499.984 500.016 L 422.894 500.016 L 422.894 422.927 L 499.984 422.927 L 499.984 500.016 Z " fill="rgb(71,145,206)"/><path d=" M 499.984 577.106 L 422.894 577.106 L 422.894 500.016 L 499.984 500.016 L 499.984 577.106 Z " fill="rgb(135,189,255)"/><path d=" M 499.984 654.195 L 422.894 654.195 L 422.894 577.106 L 499.984 577.106 L 499.984 654.195 Z " fill="rgb(71,145,206)"/><path d=" M 499.984 731.284 L 422.894 731.284 L 422.894 654.195 L 499.984 654.195 L 499.984 731.284 Z " fill="rgb(135,189,255)"/><path d=" M 422.894 345.838 L 345.805 345.838 L 345.805 268.748 L 422.894 268.748 L 422.894 345.838 Z " fill="rgb(135,189,255)"/><path d=" M 422.894 422.927 L 345.805 422.927 L 345.805 345.838 L 422.894 345.838 L 422.894 422.927 Z " fill="rgb(71,145,206)"/><path d=" M 422.894 500.016 L 345.805 500.016 L 345.805 422.927 L 422.894 422.927 L 422.894 500.016 Z " fill="rgb(135,189,255)"/><path d=" M 422.894 577.106 L 345.805 577.106 L 345.805 500.016 L 422.894 500.016 L 422.894 577.106 Z " fill="rgb(71,145,206)"/><path d=" M 422.894 654.195 L 345.805 654.195 L 345.805 577.106 L 422.894 577.106 L 422.894 654.195 Z " fill="rgb(135,189,255)"/><path d=" M 422.894 731.284 L 345.805 731.284 L 345.805 654.195 L 422.894 654.195 L 422.894 731.284 Z " fill="rgb(71,145,206)"/><path d=" M 345.805 345.838 L 268.716 345.838 L 268.716 268.748 L 345.805 268.748 L 345.805 345.838 Z " fill="rgb(71,145,206)"/><path d=" M 345.805 422.927 L 268.716 422.927 L 268.716 345.838 L 345.805 345.838 L 345.805 422.927 Z " fill="rgb(135,189,255)"/><path d=" M 345.805 500.016 L 268.716 500.016 L 268.716 422.927 L 345.805 422.927 L 345.805 500.016 Z " fill="rgb(71,145,206)"/><path d=" M 345.805 577.106 L 268.716 577.106 L 268.716 500.016 L 345.805 500.016 L 345.805 577.106 Z " fill="rgb(135,189,255)"/><path d=" M 345.805 654.195 L 268.716 654.195 L 268.716 577.106 L 345.805 577.106 L 345.805 654.195 Z " fill="rgb(71,145,206)"/><path d=" M 345.805 731.284 L 268.716 731.284 L 268.716 654.195 L 345.805 654.195 L 345.805 731.284 Z " fill="rgb(135,189,255)"/><linearGradient id="_lgradient_0" x1="0.512683578104138" y1="0.9652166863028633" x2="0.5291862683864618" y2="-0.008442040354138536" gradientTransform="matrix(-231.284,0,0,-462.569,731.284,731.317)" gradientUnits="userSpaceOnUse"><stop offset="0%" stop-opacity="1" style="stop-color:rgb(135,189,255)"/><stop offset="97.08333333333333%" stop-opacity="1" style="stop-color:rgb(71,145,206)"/></linearGradient><path d=" M 731.284 731.317 L 500 731.317 L 500 268.748 L 731.284 268.748 L 731.284 731.317 Z " fill="url(#_lgradient_0)"/><path d=" M 557.403 500 C 557.403 531.69 531.674 557.419 499.984 557.419 C 468.293 557.419 442.565 531.69 442.565 500 C 442.565 468.31 468.293 442.581 499.984 442.581 C 531.674 442.581 557.403 468.31 557.403 500 Z " fill="rgb(48,64,89)"/><path d=" M 540.791 500 L 528.27 491.508 L 515.748 483.017 L 515.748 500 L 515.748 516.983 L 528.27 508.492 L 540.791 500 Z " fill="rgb(135,189,255)"/><path d=" M 459.176 500 L 471.714 491.508 L 484.252 483.017 L 484.252 500 L 484.252 516.983 L 471.714 508.492 L 459.176 500 Z " fill="rgb(135,189,255)"/></g><path d=" M 512.364 738.403 L 487.636 738.403 L 487.636 261.597 L 512.364 261.597 L 512.364 738.403 Z " fill="rgb(48,64,89)"/></g></svg>